<?xml version="1.0" encoding="UTF-8"?>
<svg width="230px" height="79px" viewBox="0 0 230 79" version="1.1" xmlns="http://www.w3.org/2000/svg" xmlns:xlink="http://www.w3.org/1999/xlink">
    <!-- Generator: sketchtool 49.1 (51147) - http://www.bohemiancoding.com/sketch -->
    <title>462EE808-ADFB-4543-BC03-786C916E3397</title>
    <desc>Created with sketchtool.</desc>
    <defs></defs>
    <g id="Stage-1" stroke="none" stroke-width="1" fill="none" fill-rule="evenodd">
        <g id="Login" transform="translate(-1070.000000, -201.000000)" fill-rule="nonzero">
            <g id="logo" transform="translate(1070.000000, 200.000000)">
                <g id="Group-17" transform="translate(1.600000, 67.200000)" fill="#62B5E5">
                    <path d="M2.49010427,2.3794515 L6.01252803,2.3794515 C6.6960299,2.3794515 7.27253984,2.59655165 7.67973245,3.00789928 C8.07549872,3.4098981 8.29987016,3.98848554 8.2915601,4.5930419 C8.28013378,5.60686838 7.8604761,6.81598112 5.92319496,6.81598112 L2.49010427,6.81598112 L2.49010427,2.3794515 Z M8.79327955,7.08398032 C9.41237851,6.45968758 9.74789691,5.58089947 9.74062562,4.60966202 C9.72504427,2.84793075 8.43906355,1.0643856 6.01252803,1.0643856 L1.1189455,1.0643856 L1.1189455,12.1146787 L2.49010427,12.1146787 L2.49010427,8.14558962 L4.94468621,8.14558962 L8.56994688,12.1146787 L10.4023136,12.1146787 L6.66902222,8.06352784 C7.53119024,7.95757466 8.25831989,7.62517253 8.79327955,7.08398032 Z" id="Fill-1"></path>
                    <polygon id="Fill-3" points="13.3027299 7.19990557 19.4448979 7.19990557 19.4448979 5.90145976 13.3027299 5.90145976 13.3027299 2.39253984 19.7440598 2.39253984 19.7440598 1.06500885 11.9440362 1.06500885 11.9440362 12.1142632 19.9216872 12.1142632 19.9216872 10.7711509 13.3027299 10.7711509"></polygon>
                    <path d="M24.2208931,8.22339248 L26.6027621,2.82497422 L28.9856699,8.22339248 L24.2208931,8.22339248 Z M25.9857406,1.06428172 L21.0298328,12.1145749 L22.518371,12.1145749 L23.6558096,9.53845838 L29.5507534,9.53845838 L30.7027346,12.1145749 L32.1923117,12.1145749 L27.2364037,1.06428172 L25.9857406,1.06428172 Z" id="Fill-5"></path>
                    <polygon id="Fill-7" points="35.4656416 1.06469723 34.0913666 1.06469723 34.0913666 12.1149904 41.3668181 12.1149904 41.3668181 10.7843431 35.4656416 10.7843431"></polygon>
                    <polygon id="Fill-9" points="59.1023411 10.0473453 56.0972182 1.0652166 55.2423214 1.0652166 52.2247334 10.0473453 49.1936416 1.0652166 47.7393822 1.0652166 51.6045957 12.1435562 52.8770726 12.1435562 54.6232226 7.00378832 55.6692504 3.72962739 56.7204722 7.03910603 58.4479245 12.1435562 59.7193626 12.1435562 63.618855 1.0652166 62.1479757 1.0652166"></polygon>
                    <path d="M70.5865229,10.9796294 C67.7133221,10.9796294 66.3899461,8.7026748 66.3743648,6.58672752 C66.3670934,5.28620421 66.7940224,4.13526186 67.5751674,3.34892307 C68.3137234,2.60517333 69.3545576,2.21356206 70.5865229,2.21356206 C73.5064678,2.21356206 74.8101074,4.41053237 74.8101074,6.58776627 C74.8101074,8.70371355 73.488809,10.9796294 70.5865229,10.9796294 M70.5865229,0.89953492 C66.7389683,0.89953492 65.0167098,3.74884438 65.0167098,6.57426245 C65.0167098,9.32800629 66.7587046,12.2936565 70.5865229,12.2936565 C74.3914885,12.2936565 76.1407547,9.34566515 76.156336,6.6064639 C76.1636074,4.94756955 75.5985237,3.4631863 74.5659997,2.42442966 C73.573987,1.42722329 72.1986733,0.89953492 70.5865229,0.89953492" id="Fill-11"></path>
                    <path d="M80.0164595,2.3794515 L83.5399221,2.3794515 C84.2213464,2.3794515 84.7978563,2.59655165 85.2040102,3.00789928 C85.6018541,3.4098981 85.824148,3.98848554 85.8168766,4.5930419 C85.8054504,5.60686838 85.3857926,6.81598112 83.4495502,6.81598112 L80.0164595,6.81598112 L80.0164595,2.3794515 Z M86.3206736,7.08294157 C86.9397726,6.45864883 87.2742522,5.57986072 87.2659422,4.60966202 C87.2493221,2.84793075 85.9643802,1.0643856 83.5399221,1.0643856 L78.6432234,1.0643856 L78.6432234,12.1146787 L80.0164595,12.1146787 L80.0164595,8.14558962 L82.468964,8.14558962 L86.0963022,12.1146787 L87.9276301,12.1146787 L84.1933,8.06352784 C85.0575456,7.95757466 85.7846752,7.62517253 86.3206736,7.08294157 Z" id="Fill-14"></path>
                    <polygon id="Fill-16" points="90.8443549 1.06469723 89.4700798 1.06469723 89.4700798 12.1149904 96.7455314 12.1149904 96.7455314 10.7843431 90.8443549 10.7843431"></polygon>
                    <path d="M102.586148,10.7706315 L100.129489,10.7706315 L100.129489,2.39305922 L102.586148,2.39305922 C105.448962,2.39305922 106.77026,4.44252606 106.810772,6.47433405 C106.835702,7.67929176 106.41085,8.81880779 105.645287,9.59995278 C104.895304,10.3644777 103.836811,10.7706315 102.586148,10.7706315 M102.586148,1.06448948 L98.754175,1.06448948 L98.754175,12.1147826 L102.586148,12.1147826 C104.250236,12.1147826 105.659829,11.5715129 106.664307,10.5431438 C107.666707,9.51789101 108.220364,8.0303915 108.185047,6.4639465 C108.12376,3.77668306 106.3693,1.06448948 102.586148,1.06448948" id="Fill-18"></path>
                    <polygon id="Fill-20" points="115.00251 2.36418178 118.791895 2.36418178 118.791895 12.1149904 120.16617 12.1149904 120.16617 2.36418178 123.955554 2.36418178 123.955554 1.08027858 115.00251 1.08027858"></polygon>
                    <polygon id="Fill-22" points="127.397578 7.19990557 133.537668 7.19990557 133.537668 5.90145976 127.397578 5.90145976 127.397578 2.39253984 133.83683 2.39253984 133.83683 1.06500885 126.037845 1.06500885 126.037845 12.1142632 134.016535 12.1142632 134.016535 10.7711509 127.397578 10.7711509"></polygon>
                    <path d="M141.476574,2.22820854 C142.647252,2.22820854 143.734831,2.67175762 144.541944,3.47783277 L144.728921,3.66377021 L145.709507,2.81302853 L145.495523,2.59904466 C144.442224,1.54782294 142.978616,0.944305331 141.476574,0.944305331 C139.816641,0.944305331 138.398738,1.48861381 137.379717,2.52009915 C136.345116,3.56508834 135.785226,5.03285147 135.801846,6.65019555 C135.818466,9.42990832 137.57812,12.2345512 141.476574,12.2345512 C142.979655,12.2345512 144.443263,11.6299949 145.495523,10.5777344 L145.700158,10.3720606 L144.753851,9.47769112 L144.560642,9.66674483 C143.750412,10.4634712 142.626477,10.9174078 141.476574,10.9174078 C138.320831,10.9174078 137.170927,8.60098053 137.145997,6.6179941 C137.137687,5.33201338 137.564616,4.18938107 138.347839,3.4030423 C139.111325,2.63436238 140.193709,2.22820854 141.476574,2.22820854" id="Fill-24"></path>
                    <polygon id="Fill-26" points="155.526173 6.05259886 149.411012 6.05259886 149.411012 1.06448948 148.035699 1.06448948 148.035699 12.1147826 149.411012 12.1147826 149.411012 7.35104466 155.526173 7.35104466 155.526173 12.1147826 156.899409 12.1147826 156.899409 1.06448948 155.526173 1.06448948"></polygon>
                    <polygon id="Fill-28" points="167.176659 9.22465002 160.539005 1.0652166 159.778635 1.0652166 159.778635 12.114471 161.150832 12.114471 161.150832 3.9664639 167.71993 12.0095566 167.804069 12.114471 168.535354 12.114471 168.535354 1.0652166 167.176659 1.0652166"></polygon>
                    <path d="M176.698941,10.9796294 C173.824702,10.9796294 172.501326,8.7026748 172.486784,6.58672752 C172.479512,5.2841267 172.90748,4.1342231 173.689664,3.34684557 C174.427181,2.60517333 175.469054,2.21356206 176.698941,2.21356206 C179.617848,2.21356206 180.922526,4.41053237 180.922526,6.58776627 C180.922526,8.70371355 179.602266,10.9796294 176.698941,10.9796294 M176.698941,0.89953492 C172.851387,0.89953492 171.129128,3.74884438 171.129128,6.57426245 C171.129128,9.32800629 172.872162,12.2936565 176.698941,12.2936565 C180.503907,12.2936565 182.254213,9.34566515 182.268755,6.6064639 C182.276026,4.94756955 181.711981,3.46214755 180.678418,2.42442966 C179.687445,1.42722329 178.311091,0.89953492 176.698941,0.89953492" id="Fill-30"></path>
                    <polygon id="Fill-33" points="186.11579 1.06469723 184.741515 1.06469723 184.741515 12.1149904 192.015928 12.1149904 192.015928 10.7843431 186.11579 10.7843431"></polygon>
                    <path d="M198.906416,10.9796294 C196.031138,10.9796294 194.7088,8.7026748 194.696336,6.58672752 C194.688026,5.28620421 195.113915,4.13526186 195.896099,3.34892307 C196.634654,2.60517333 197.674451,2.21356206 198.906416,2.21356206 C201.826362,2.21356206 203.132078,4.41053237 203.132078,6.58776627 C203.132078,8.70371355 201.809741,10.9796294 198.906416,10.9796294 M198.906416,0.89953492 C195.058861,0.89953492 193.336603,3.74884438 193.336603,6.57426245 C193.336603,9.32800629 195.079637,12.2936565 198.906416,12.2936565 C202.711381,12.2936565 204.461686,9.34566515 204.47519,6.6064639 C204.484539,4.9486083 203.921533,3.46422506 202.886931,2.42546843 C201.894918,1.42722329 200.518566,0.89953492 198.906416,0.89953492" id="Fill-35"></path>
                    <path d="M211.367445,7.33577494 L215.02179,7.33577494 L215.02179,9.86306984 C214.232336,10.545533 213.205005,10.9174078 212.11431,10.9174078 C208.90663,10.9174078 207.768152,8.59474798 207.768152,6.60241275 C207.759843,5.33824592 208.194043,4.20184616 208.988691,3.40096478 C209.761526,2.62397482 210.841834,2.21262718 212.11431,2.21262718 C213.292261,2.21262718 214.47852,2.68630022 215.284595,3.47887154 L215.494424,3.68454534 L216.339973,2.76005194 L216.146763,2.56788195 C215.065418,1.50211765 213.632973,0.913142632 212.11431,0.913142632 C210.446067,0.913142632 209.018816,1.46368365 207.985253,2.50244029 C206.956883,3.53496438 206.41673,4.95909974 206.424002,6.61903285 C206.424002,9.42159827 208.183656,12.2490938 212.11431,12.2490938 C213.691142,12.2490938 215.090349,11.65077 216.267259,10.4738588 L216.35036,10.3897195 L216.35036,6.06537557 L211.367445,6.06537557 L211.367445,7.33577494 Z" id="Fill-38"></path>
                    <polygon id="Fill-40" points="225.751835 1.06469723 222.342635 6.33846469 218.946939 1.06469723 217.850013 1.06469723 217.566432 1.08027858 217.566432 1.44488216 221.653939 7.72104978 221.653939 12.1149904 223.029253 12.1149904 223.029253 7.72104978 227.086637 1.51655636 227.133381 1.43137832 227.133381 1.06469723"></polygon>
                </g>
                <path d="M118.107876,4.4775605 C110.298504,4.4775605 102.489132,4.54819595 94.6807979,4.54819595 L94.6807979,25.6941648 L104.051422,25.6941648 L104.051422,13.4212552 L118.107876,13.4212552 C130.031764,13.4212552 130.105516,31.029219 118.107876,31.029219 L101.171988,31.029219 C97.7004635,31.0531104 94.868813,33.8089317 94.6807979,37.2420224 L94.6807979,54.2423136 L104.051422,54.2423136 L104.051422,39.6186976 L118.107876,39.6186976 C142.457371,39.6186976 142.384658,4.4775605 118.107876,4.4775605" id="Fill-42" fill="#071D49"></path>
                <path d="M160.12579,45.2264253 L149.901309,45.2264253 L149.901309,13.423852 L160.12579,13.423852 C170.914317,13.423852 175.457838,21.1605115 175.671822,28.8982098 C175.88269,36.9911627 171.41292,45.2264253 160.12579,45.2264253 M160.12579,4.54975408 L140.602359,4.54975408 L140.602359,54.2407555 L160.12579,54.2407555 C177.516654,54.2407555 185.183717,41.5336454 184.969733,28.9709227 C184.758866,16.6876254 177.16036,4.54975408 160.12579,4.54975408" id="Fill-44" fill="#071D49"></path>
                <path d="M209.384565,23.8588896 C203.422102,23.1483802 198.309342,21.9413448 198.309342,17.6118072 C198.309342,13.9190273 201.646867,11.00947 208.603421,11.00947 C213.99976,11.00947 218.683515,13.707121 220.389154,16.5470816 L227.84327,12.7130309 C224.078816,5.04492938 216.056499,2.84588157 208.31984,2.84588157 C199.159045,2.91651702 189.079989,7.10374504 189.079989,17.3271878 C189.079989,28.4720078 198.45269,31.1696589 208.603421,32.3766941 C215.205757,33.0872037 220.101418,35.0037096 220.101418,39.6885021 C220.101418,45.0848429 214.565883,47.1426197 208.671978,47.1426197 C202.640957,47.1426197 196.888323,44.7306267 194.688237,39.2626118 L186.879902,43.3096077 C191.34344,54.2934205 201.820339,56.5651811 215.179789,55.1368909 C222.879053,54.3141955 229.142755,48.1522912 229.392056,40.414593 C229.789901,27.9432808 219.959107,25.1625293 209.384565,23.8588896" id="Fill-46" fill="#071D49"></path>
                <path d="M81.0798379,29.1835562 C81.0798379,44.7264718 68.4786811,57.3276286 52.9357654,57.3276286 C37.3907723,57.3276286 24.7906544,44.7264718 24.7906544,29.1835562 C24.7906544,13.6396018 37.3907723,1.03844501 52.9357654,1.03844501 C68.4786811,1.03844501 81.0798379,13.6396018 81.0798379,29.1835562" id="Fill-49" fill="#62B5E5"></path>
                <path d="M56.2886642,29.1835562 C56.2886642,44.7264718 43.6875074,57.3276286 28.143553,57.3276286 C12.5985599,57.3276286 0.00051937832,44.7264718 0.00051937832,29.1835562 C0.00051937832,13.6396018 12.5985599,1.03844501 28.143553,1.03844501 C43.6875074,1.03844501 56.2886642,13.6396018 56.2886642,29.1835562" id="Fill-52" fill="#071D49"></path>
                <path d="M56.2886642,29.1835562 C56.2886642,18.0740539 49.848373,8.47074877 40.5037182,3.89398701 C31.1549085,8.47074877 24.7156562,18.0740539 24.7156562,29.1835562 C24.7156562,40.2899422 31.1549085,49.8953248 40.5037182,54.4720866 C49.848373,49.8953248 56.2886642,40.2899422 56.2886642,29.1835562" id="Fill-55" fill="#004C97"></path>
            </g>
        </g>
    </g>
</svg>